<?xml version="1.0" encoding="UTF-8"?>
<!DOCTYPE svg  PUBLIC '-//W3C//DTD SVG 1.1//EN'  'http://www.w3.org/Graphics/SVG/1.1/DTD/svg11.dtd'>
<svg enable-background="new 0 0 68.4 68.4" version="1.1" viewBox="0 0 68.4 68.4" xml:space="preserve" xmlns="http://www.w3.org/2000/svg">
		<path d="m34.2 65.7c-17.369 0-31.5-14.131-31.5-31.5s14.131-31.5 31.5-31.5 31.5 14.131 31.5 31.5-14.131 31.5-31.5 31.5z" fill="#E46272"/>
			<path d="m34.2 3.2c17.093 0 31 13.907 31 31s-13.907 31-31 31-31-13.907-31-31 13.907-31 31-31m0-1c-17.674 0-32 14.328-32 32 0 17.674 14.326 32 32 32 17.672 0 32-14.326 32-32 0-17.672-14.328-32-32-32z" fill="#FB0A08"/>
	<g opacity=".8">
		<linearGradient id="f" x1="33.294" x2="49.871" y1="22.953" y2="86.484" gradientUnits="userSpaceOnUse">
			<stop stop-color="#fff" offset="0"/>
			<stop stop-color="#B7C2C1" offset="1"/>
		</linearGradient>
		<path d="m55.599 11.802c5.32 5.568 8.6 13.105 8.6 21.398 0 17.094-13.904 31-30.998 31-8.293 0-15.83-3.279-21.398-8.602 5.647 5.911 13.596 9.602 22.397 9.602 17.094 0 31-13.904 31-31 0-8.801-3.693-16.75-9.601-22.398z" fill="url(#f)"/>
	</g>
	<g opacity=".5">
			<linearGradient id="g" x1="25.736" x2="37.175" y1="3.4102" y2="45.025" gradientUnits="userSpaceOnUse">
				<stop stop-color="#FDFECC" offset="0"/>
				<stop stop-color="#070606" offset="1"/>
			</linearGradient>
			<path d="m26.554 39.903c10.875-9.359 24.949-18.096 37.078-11.508-2.713-13.773-14.877-24.197-29.432-24.197-16.543 0-30 13.461-30 30.004 0 4.008 0.795 7.832 2.229 11.33 4.758 1.197 12.158 1.231 20.125-5.629z" fill="url(#g)"/>
	</g>
		<linearGradient id="h" x1="20.364" x2="41.651" y1="-2.1572" y2="59.574" gradientUnits="userSpaceOnUse">
			<stop stop-color="#fff" offset="0"/>
			<stop stop-color="#070606" offset="1"/>
		</linearGradient>
		<path d="m6.202 36.204c0-16.543 13.457-30.004 30-30.004 7.762 0 14.846 2.965 20.178 7.82-5.492-6.031-13.402-9.822-22.18-9.822-16.543 0-30 13.461-30 30.004 0 8.779 3.791 16.689 9.822 22.182-4.855-5.334-7.82-12.416-7.82-20.18z" fill="url(#h)"/>
		<linearGradient id="i" x1="25.447" x2="25.447" y1="56.728" y2="38.058" gradientUnits="userSpaceOnUse">
			<stop stop-color="#fff" offset="0"/>
			<stop stop-color="#B7C2C1" offset="1"/>
		</linearGradient>
		<path d="m29.167 38.038c-0.396-0.438-1.08-0.473-1.518-0.074l-9.098 8.264c-0.439 0.398-0.473 1.083-0.074 1.521l3.248 3.591c0.396 0.439 1.082 0.473 1.52 0.074l9.098-8.264c0.438-0.398 0.471-1.083 0.074-1.522l-3.25-3.59z" fill="url(#i)" opacity=".8"/>
		<linearGradient id="j" x1="40.287" x2="40.287" y1="51.102" y2="19.343" gradientUnits="userSpaceOnUse">
			<stop stop-color="#fff" offset="0"/>
			<stop stop-color="#B7C2C1" offset="1"/>
		</linearGradient>
		<path d="m44.181 19.369c-1.287-0.446-2.604-0.659-3.895-0.659-4.936 0-9.549 3.093-11.254 8.02-2.152 6.216 1.145 12.998 7.359 15.148 1.291 0.445 2.604 0.659 3.896 0.659 4.936 0 9.549-3.093 11.254-8.02 2.151-6.215-1.144-12.997-7.36-15.148zm4.31 14.094c-1.209 3.496-4.508 5.846-8.203 5.846-0.963 0-1.92-0.162-2.84-0.481-2.191-0.758-3.957-2.325-4.971-4.409-1.012-2.086-1.152-4.441-0.395-6.633 1.211-3.497 4.506-5.846 8.203-5.846 0.963 0 1.918 0.162 2.84 0.48 2.191 0.758 3.957 2.323 4.969 4.41 1.014 2.086 1.155 4.441 0.397 6.633z" fill="url(#j)" opacity=".8"/>
	<g fill="#070606">
		<path d="m28.167 37.037c-0.396-0.438-1.08-0.473-1.52-0.074l-9.096 8.264c-0.439 0.398-0.473 1.083-0.074 1.521l3.248 3.591c0.396 0.439 1.08 0.473 1.518 0.074l9.098-8.264c0.438-0.398 0.473-1.083 0.074-1.522l-3.248-3.59z"/>
		<path d="m43.181 18.368c-1.289-0.446-2.604-0.659-3.895-0.659-4.936 0-9.551 3.093-11.256 8.02-2.15 6.216 1.145 12.998 7.361 15.148 1.291 0.445 2.604 0.659 3.895 0.659 4.938 0 9.551-3.093 11.256-8.02 2.148-6.215-1.145-12.997-7.361-15.148zm4.31 14.094c-1.211 3.496-4.508 5.846-8.205 5.846-0.963 0-1.918-0.162-2.838-0.481-2.191-0.758-3.957-2.325-4.971-4.409-1.014-2.086-1.154-4.441-0.396-6.633 1.211-3.497 4.508-5.846 8.205-5.846 0.961 0 1.916 0.162 2.84 0.48 2.189 0.758 3.955 2.323 4.969 4.41 1.013 2.086 1.154 4.442 0.396 6.633z"/>
	</g>
</svg>
