<?xml version="1.0" ?><!DOCTYPE svg  PUBLIC '-//W3C//DTD SVG 1.1//EN'  'http://www.w3.org/Graphics/SVG/1.1/DTD/svg11.dtd'><svg enable-background="new 0 0 500 500" height="500px" id="Layer_1" version="1.1" viewBox="0 0 500 500" width="500px" xml:space="preserve" xmlns="http://www.w3.org/2000/svg" xmlns:xlink="http://www.w3.org/1999/xlink"><g><path d="M357,166.839c0-4.882-3.957-8.839-8.839-8.839H151.839c-4.882,0-8.839,3.957-8.839,8.839v166.322    c0,4.882,3.957,8.839,8.839,8.839h196.322c4.882,0,8.839-3.957,8.839-8.839V166.839z M224.505,225.006    c-6.098,0-11.042,4.943-11.042,11.042c0,1.459,0.293,2.848,0.808,4.123L205,252.081V175h40v66.635l-9.168-5.303    c0.002-0.095-0.136-0.188-0.136-0.284C235.696,229.95,230.603,225.006,224.505,225.006z M221.635,246.698    c0.918,0.247,1.876,0.391,2.871,0.391c2.397,0,4.909-0.772,6.719-2.07L245,253.078V324h-40v-55.934L221.635,246.698z M255,258.952    l8.487,5.309c-0.017,0.252-0.233,0.503-0.233,0.759c0,6.098,4.846,11.042,10.944,11.042c6.098,0,10.993-4.943,10.993-11.042    c0-1.533,0.349-2.992-0.215-4.319L295,248.926V324h-40V258.952z M277.476,254.322c-0.862-0.216-2.103-0.344-3.033-0.344    c-2.232,0-4.087,0.667-5.824,1.806L255,247.508V175h40v58.145L277.476,254.322z M160,175h36v89.694l-15.763,19.712    c-0.712-0.144-1.655-0.221-2.41-0.221c-6.098,0-11.145,4.943-11.145,11.042c0,6.098,4.892,11.042,10.99,11.042    c6.098,0,11.016-4.943,11.016-11.042c0-1.714,0-3.329-0.697-4.777l8.01-9.771V324h-36V175z M340,324h-36v-87.426l15.954-20.414    c0.745,0.159,1.379,0.246,2.172,0.246c6.098,0,10.972-4.943,10.972-11.042c0-6.098-4.978-11.042-11.076-11.042    c-6.098,0-11.059,4.943-11.059,11.042c0,1.674,0.651,3.255,1.318,4.677L304,220.793V175h36V324z" fill="#231F20"/></g></svg>