<?xml version="1.0" ?><svg height="32" id="svg4152" version="1.1" viewBox="0 0 32 32" width="32" xmlns="http://www.w3.org/2000/svg" xmlns:cc="http://creativecommons.org/ns#" xmlns:dc="http://purl.org/dc/elements/1.1/" xmlns:inkscape="http://www.inkscape.org/namespaces/inkscape" xmlns:rdf="http://www.w3.org/1999/02/22-rdf-syntax-ns#" xmlns:sodipodi="http://sodipodi.sourceforge.net/DTD/sodipodi-0.dtd" xmlns:svg="http://www.w3.org/2000/svg"><defs id="defs4154"/><g id="layer1"><g id="g5288" transform="matrix(0.75510241,0,0,0.75510241,8.764005,2.8965961)"><path d="m 4.5151312,15.447498 1.5948601,0 c 0.6662238,0 1.20257,0.536346 1.20257,1.20257 l 0,11.710169 c 0,0.666224 -0.5363462,1.20257 -1.20257,1.20257 l -1.5948601,0 c -0.6662237,0 -1.2025699,-0.536346 -1.2025699,-1.20257 l 0,-11.710169 c 0,-0.666224 0.5363462,-1.20257 1.2025699,-1.20257 z" id="rect5270" style="opacity:1;fill:none;fill-opacity:1;stroke:#0e6ea1;stroke-width:1;stroke-linecap:round;stroke-linejoin:round;stroke-miterlimit:4;stroke-dasharray:none;stroke-opacity:1"/><path d="m 11.52444,11.85447 1.59486,0 c 0.666224,0 1.20257,0.536346 1.20257,1.20257 l 0,15.303197 c 0,0.666224 -0.536346,1.20257 -1.20257,1.20257 l -1.59486,0 c -0.666224,0 -1.20257,-0.536346 -1.20257,-1.20257 l 0,-15.303197 c 0,-0.666224 0.536346,-1.20257 1.20257,-1.20257 z" id="rect5274" style="opacity:1;fill:none;fill-opacity:1;stroke:#0e6ea1;stroke-width:1;stroke-linecap:round;stroke-linejoin:round;stroke-miterlimit:4;stroke-dasharray:none;stroke-opacity:1"/><path d="m 18.470602,8.4030573 1.59486,0 c 0.666224,0 1.20257,0.536346 1.20257,1.20257 l 0,18.7546097 c 0,0.666224 -0.536346,1.20257 -1.20257,1.20257 l -1.59486,0 c -0.666224,0 -1.20257,-0.536346 -1.20257,-1.20257 l 0,-18.7546097 c 0,-0.666224 0.536346,-1.20257 1.20257,-1.20257 z" id="path5278" style="opacity:1;fill:none;fill-opacity:1;stroke:#0e6ea1;stroke-width:1;stroke-linecap:round;stroke-linejoin:round;stroke-miterlimit:4;stroke-dasharray:none;stroke-opacity:1"/><path d="m 24.911589,5.1434891 1.59486,0 c 0.666224,0 1.20257,0.536346 1.20257,1.20257 l 0,22.0141779 c 0,0.666224 -0.536346,1.20257 -1.20257,1.20257 l -1.59486,0 c -0.666224,0 -1.20257,-0.536346 -1.20257,-1.20257 l 0,-22.0141779 c 0,-0.666224 0.536346,-1.20257 1.20257,-1.20257 z" id="path5280" style="opacity:1;fill:none;fill-opacity:1;stroke:#0e6ea1;stroke-width:1;stroke-linecap:round;stroke-linejoin:round;stroke-miterlimit:4;stroke-dasharray:none;stroke-opacity:1"/><path d="m -1.4681859,18.447907 1.59486012,0 c 0.6662238,0 1.20256998,0.536346 1.20256998,1.20257 l 0,8.70976 c 0,0.666224 -0.53634618,1.20257 -1.20256998,1.20257 l -1.59486012,0 c -0.6662237,0 -1.2025699,-0.536346 -1.2025699,-1.20257 l 0,-8.70976 c 0,-0.666224 0.5363462,-1.20257 1.2025699,-1.20257 z" id="path5282" style="opacity:1;fill:none;fill-opacity:1;stroke:#0e6ea1;stroke-width:1;stroke-linecap:round;stroke-linejoin:round;stroke-miterlimit:4;stroke-dasharray:none;stroke-opacity:1"/><path d="m -7.3408501,21.184893 1.5948601,0 c 0.6662238,0 1.20257,0.536346 1.20257,1.20257 l 0,5.972774 c 0,0.666224 -0.5363462,1.20257 -1.20257,1.20257 l -1.5948601,0 c -0.6662237,0 -1.2025699,-0.536346 -1.2025699,-1.20257 l 0,-5.972774 c 0,-0.666224 0.5363462,-1.20257 1.2025699,-1.20257 z" id="path5284" style="opacity:1;fill:none;fill-opacity:1;stroke:#0e6ea1;stroke-width:1;stroke-linecap:round;stroke-linejoin:round;stroke-miterlimit:4;stroke-dasharray:none;stroke-opacity:1"/></g></g></svg>