<?xml version="1.0" ?><svg id="Layer_1" style="enable-background:new 0 0 512 512;" version="1.1" viewBox="0 0 512 512" xml:space="preserve" xmlns="http://www.w3.org/2000/svg" xmlns:xlink="http://www.w3.org/1999/xlink"><style type="text/css">
	.st0{fill:#E1F9EC;}
	.st1{fill:#55A47E;}
	.st2{fill:#377753;}
	.st3{fill:#FFFFFF;}
</style><g id="XMLID_22_"><g id="XMLID_142_"><polygon class="st0" id="XMLID_146_" points="330.7,6 87.9,6 87.9,506 449.2,506 449.2,122.8   "/><polygon class="st1" id="XMLID_145_" points="330.7,6 449.2,122.8 330.7,122.8   "/><rect class="st1" height="156.1" id="XMLID_144_" width="329" x="62.8" y="298.8"/><polygon class="st2" id="XMLID_143_" points="62.8,454.9 87.9,476.1 87.9,454.9   "/></g><g id="XMLID_817_"><path class="st3" d="M153.5,377.2h0.3l7.9-18.4h21.9l-18.1,30.9l18.8,31.6h-21.9l-8.3-19h-0.3l-8.3,19h-21.9    l18.8-31.6l-18.2-30.9h21.7L153.5,377.2z" id="XMLID_785_"/><path class="st3" d="M216.2,358.7l0.7,8.3c2-3,4.4-5.3,7.4-7c3-1.6,6.4-2.5,10.2-2.5c3.9,0,7.2,0.8,10,2.5    c2.8,1.7,4.9,4.3,6.3,7.7c1.9-3.3,4.4-5.8,7.4-7.6c3-1.8,6.5-2.7,10.6-2.7c6.1,0,10.9,2.2,14.3,6.5c3.5,4.4,5.2,11.1,5.2,20.2    v36.9h-19.6v-36.9c0-4.5-0.6-7.5-1.9-9.2c-1.3-1.7-3.1-2.5-5.6-2.5c-1.9,0-3.5,0.3-5,1c-1.4,0.7-2.7,1.6-3.7,2.8    c0,0.7,0,1.2,0.1,1.7c0,0.5,0.1,1,0.1,1.4v41.7h-19.5v-36.9c0-4.5-0.6-7.6-1.8-9.2c-1.2-1.7-3.1-2.5-5.7-2.5c-1.8,0-3.4,0.3-4.8,1    c-1.4,0.7-2.7,1.6-3.7,2.8v44.8h-19.5v-62.4H216.2z" id="XMLID_787_"/><path class="st3" d="M328.3,421.2h-19.6v-90h19.6V421.2z" id="XMLID_789_"/></g></g></svg>